<?xml version="1.0" encoding="UTF-8"?>
<svg version="1.1" xmlns="http://www.w3.org/2000/svg" width="500" height="500">
<path d="M0 0 C165 0 330 0 500 0 C500 165 500 330 500 500 C335 500 170 500 0 500 C0 335 0 170 0 0 Z " fill="#CEDBFF" transform="translate(0,0)"/>
<path d="M0 0 C4.10523155 0.68420526 6.89591837 1.18306814 10.58520508 2.64794922 C11.8818383 3.15761734 11.8818383 3.15761734 13.20466614 3.67758179 C14.59802437 4.23549911 14.59802437 4.23549911 16.01953125 4.8046875 C17.00906296 5.19524323 17.99859467 5.58579895 19.01811218 5.9881897 C21.16070954 6.83454207 23.30225921 7.68355052 25.44287109 8.53491211 C30.03923528 10.3628677 34.64061093 12.1780428 39.24179077 13.99383545 C41.62894098 14.93595544 44.01584 15.87871212 46.40249634 16.82208252 C57.08403377 21.04199173 67.78886633 25.20018187 78.50131226 29.34088135 C96.187304 36.17725935 113.85168003 43.06697797 131.5 50 C153.57255449 58.67086815 175.67374766 67.26642477 197.79176331 75.82063293 C203.64975958 78.08695993 209.50439629 80.36186804 215.35826111 82.63883972 C216.19091476 82.96268442 217.02356841 83.28652911 217.88145399 83.62018728 C219.92098129 84.41342743 221.96049631 85.20669914 224 86 C224.0938067 111.92299536 224.16415617 137.84596495 224.20724869 163.76909637 C224.22779693 175.80803634 224.25576803 187.8468703 224.30175781 199.88574219 C224.34186412 210.38956865 224.36748889 220.89331827 224.37635398 231.39721918 C224.38152878 236.94921042 224.39352641 242.50098201 224.42292023 248.05290222 C224.56334088 275.65962336 224.43172996 301.70800941 215 328 C214.59394531 329.22847656 214.18789063 330.45695312 213.76953125 331.72265625 C207.3235007 350.67913901 197.1748737 368.18103635 185 384 C183.88044922 385.46566406 183.88044922 385.46566406 182.73828125 386.9609375 C168.63885706 404.73507298 152.14243396 420.43004939 134 434 C133.31421875 434.515625 132.6284375 435.03125 131.921875 435.5625 C96.05263036 462.39992045 55.33853233 481.88283082 13 496.1875 C12.14003418 496.47915039 11.28006836 496.77080078 10.39404297 497.07128906 C9.2089917 497.45945801 9.2089917 497.45945801 8 497.85546875 C7.319375 498.07871826 6.63875 498.30196777 5.9375 498.53198242 C4 499 4 499 0 499 C0 334.33 0 169.66 0 0 Z " fill="#CEDBFF" transform="translate(250,1)"/>
<path d="M0 0 C0 121.44 0 242.88 0 368 C-7.49313558 367.06335805 -13.21988779 365.41914707 -20.1875 362.8125 C-21.35716309 362.37615234 -22.52682617 361.93980469 -23.73193359 361.49023438 C-77.84708483 340.77231374 -130.30616957 306.40583707 -154.75 252.0625 C-161.94316171 235.44431029 -165.32361367 218.89981075 -165.22705078 200.7980957 C-165.22648544 199.29895536 -165.22680563 197.79981446 -165.22793579 196.30067444 C-165.22850549 192.26421493 -165.21681371 188.22787626 -165.20278788 184.19144464 C-165.1902162 179.96074058 -165.18910497 175.73003321 -165.18673706 171.49931335 C-165.1805411 163.50272779 -165.16415599 155.50619744 -165.14403808 147.5096361 C-165.12162018 138.39952585 -165.11067088 129.28941284 -165.10064721 120.17928183 C-165.07978793 101.45282335 -165.0446489 82.72641613 -165 64 C-159.25400973 61.72602286 -153.50779132 59.4526234 -147.76138306 57.17970276 C-145.81670326 56.41042244 -143.8720802 55.64099867 -141.92752075 54.87141418 C-122.49618008 47.18142669 -103.0312898 39.57889158 -83.55792236 31.99609375 C-76.66549399 29.31207764 -69.77363223 26.62660981 -62.88241577 23.93948364 C-61.17971111 23.27561666 -59.47693288 22.61193832 -57.77407837 21.94845581 C-48.18749441 18.21280159 -38.60978825 14.45603357 -29.046875 10.66015625 C-28.15981369 10.30839828 -27.27275238 9.95664032 -26.35881042 9.59422302 C-22.10438681 7.90695771 -17.85137974 6.21628835 -13.60083008 4.51928711 C-12.08940875 3.9189739 -10.57793703 3.31878755 -9.06640625 2.71875 C-8.37581116 2.44148575 -7.68521606 2.1642215 -6.97369385 1.8785553 C-2.22701527 0 -2.22701527 0 0 0 Z " fill="#1A5BFF" transform="translate(250,66)"/>
<path d="M0 0 C3.7296403 0.54568643 7.0828037 1.25727348 10.58520508 2.64794922 C11.8818383 3.15761734 11.8818383 3.15761734 13.20466614 3.67758179 C14.59802437 4.23549911 14.59802437 4.23549911 16.01953125 4.8046875 C17.00906296 5.19524323 17.99859467 5.58579895 19.01811218 5.9881897 C21.16070954 6.83454207 23.30225921 7.68355052 25.44287109 8.53491211 C30.03923528 10.3628677 34.64061093 12.1780428 39.24179077 13.99383545 C41.62894098 14.93595544 44.01584 15.87871212 46.40249634 16.82208252 C57.08403377 21.04199173 67.78886633 25.20018187 78.50131226 29.34088135 C96.187304 36.17725935 113.85168003 43.06697797 131.5 50 C153.57255449 58.67086815 175.67374766 67.26642477 197.79176331 75.82063293 C203.64975958 78.08695993 209.50439629 80.36186804 215.35826111 82.63883972 C216.19091476 82.96268442 217.02356841 83.28652911 217.88145399 83.62018728 C219.92098129 84.41342743 221.96049631 85.20669914 224 86 C224.0938067 111.92299536 224.16415617 137.84596495 224.20724869 163.76909637 C224.22779693 175.80803634 224.25576803 187.8468703 224.30175781 199.88574219 C224.34186412 210.38956865 224.36748889 220.89331827 224.37635398 231.39721918 C224.38152878 236.94921042 224.39352641 242.50098201 224.42292023 248.05290222 C224.56334088 275.65962336 224.43172996 301.70800941 215 328 C214.59394531 329.22847656 214.18789063 330.45695312 213.76953125 331.72265625 C207.3235007 350.67913901 197.1748737 368.18103635 185 384 C183.88044922 385.46566406 183.88044922 385.46566406 182.73828125 386.9609375 C168.63885706 404.73507298 152.14243396 420.43004939 134 434 C133.31421875 434.515625 132.6284375 435.03125 131.921875 435.5625 C96.05263036 462.39992045 55.33853233 481.88283082 13 496.1875 C12.14003418 496.47915039 11.28006836 496.77080078 10.39404297 497.07128906 C9.2089917 497.45945801 9.2089917 497.45945801 8 497.85546875 C7.319375 498.07871826 6.63875 498.30196777 5.9375 498.53198242 C4 499 4 499 0 499 C0 477.55 0 456.1 0 434 C11.17575758 429.52969697 11.17575758 429.52969697 15.0859375 428.17578125 C52.67733678 414.95997214 88.73309846 396.32496405 117.55224609 368.40087891 C118.91521441 367.08204043 120.29498728 365.78063242 121.67578125 364.48046875 C145.16809759 341.86500404 163.44194653 307.34135576 164.39872742 274.38771057 C164.42473274 271.67482313 164.43572197 268.96490457 164.43237305 266.25219727 C164.44141842 264.74260674 164.45175229 263.23302349 164.46325684 261.72344971 C164.49052775 257.67692621 164.50007001 253.63054316 164.50611091 249.58393979 C164.5155736 245.33584749 164.54178249 241.08785694 164.56611633 236.83982849 C164.60956995 228.81863191 164.63824608 220.79745532 164.66143972 212.77617735 C164.68860559 203.63446892 164.73250945 194.49286395 164.77772844 185.35122979 C164.87027148 166.56754137 164.94209016 147.78382555 165 129 C164.32593896 128.80093048 163.65187792 128.60186096 162.95739079 128.39675903 C162.06645442 128.13192719 161.17551805 127.86709534 160.25758362 127.59423828 C159.37727258 127.33329376 158.49696154 127.07234924 157.5899744 126.80349731 C153.91460804 125.66327485 150.35158834 124.29597953 146.77734375 122.875 C146.01565887 122.57614899 145.253974 122.27729797 144.46920776 121.96939087 C142.82185927 121.32257323 141.17521078 120.67397043 139.52920532 120.02374268 C135.9264599 118.60063172 132.32024007 117.18642069 128.71421814 115.77163696 C126.78799468 115.01585861 124.86194175 114.25964552 122.93605042 113.50302124 C112.93068813 109.57400223 102.90709312 105.69244251 92.88238525 101.81311035 C73.3869588 94.26796907 53.90981923 86.67696834 34.4465332 79.04931641 C33.55318771 78.69926544 32.65984222 78.34921448 31.73942566 77.98855591 C30.00263915 77.30782941 28.26599153 76.62674847 26.52949524 75.94528198 C22.2663388 74.27350947 17.99966135 72.61174044 13.72607422 70.96679688 C12.88741318 70.64330261 12.04875214 70.31980835 11.18467712 69.98651123 C9.5956822 69.37423887 8.00584601 68.76414395 6.41505432 68.15655518 C1.11121939 66.11121939 1.11121939 66.11121939 0 65 C-0.09409479 62.97505769 -0.11743122 60.9468013 -0.11352539 58.91967773 C-0.11344986 57.61840439 -0.11337433 56.31713104 -0.11329651 54.97642517 C-0.10818909 53.54548098 -0.10297308 52.11453718 -0.09765625 50.68359375 C-0.09579203 49.2277074 -0.09436815 47.77182043 -0.09336853 46.31593323 C-0.08954365 42.47720621 -0.07971364 38.63851681 -0.06866455 34.79980469 C-0.05844978 30.88542184 -0.05387077 26.97103294 -0.04882812 23.05664062 C-0.03809134 15.37107657 -0.02101529 7.68554355 0 0 Z " fill="#1A5BFF" transform="translate(250,1)"/>
<path d="M0 0 C81.18 0 162.36 0 246 0 C246 0.66 246 1.32 246 2 C220.56020987 12.08322275 195.09941436 22.10984064 169.59928894 32.039505 C163.74443982 34.31953273 157.89126074 36.60380244 152.0390625 38.890625 C137.71221141 44.48814533 123.38386903 50.0814283 109.0390625 55.6328125 C107.51277725 56.22360092 107.51277725 56.22360092 105.95565796 56.82632446 C97.60396113 60.05894513 97.60396113 60.05894513 93.53875732 61.63092041 C82.15266613 66.0348616 70.78002781 70.46927734 59.4375 74.984375 C57.93175919 75.58313194 57.93175919 75.58313194 56.39559937 76.19398499 C51.61450869 78.09605022 46.83590706 80.00400799 42.06103516 81.92163086 C40.36627598 82.59765657 38.67145536 83.27352827 36.9765625 83.94921875 C35.82244873 84.41645355 35.82244873 84.41645355 34.64501953 84.89312744 C31.61727328 86.09562124 29.28939441 87 26 87 C26.03730259 112.94038699 26.09736171 138.88063705 26.18390274 164.82090855 C26.22357239 176.86766827 26.25602588 188.91436381 26.27099609 200.96118164 C26.28407555 211.47129763 26.31119913 221.98127167 26.35461307 232.49130768 C26.37708732 238.0471241 26.3929192 243.60276638 26.39188385 249.15863228 C25.9985811 280.84116038 25.9985811 280.84116038 31 312 C31.22828743 312.88083818 31.45657486 313.76167637 31.69178009 314.66920662 C44.51064894 363.27669738 75.52178938 402.77874911 115 433 C116.0003125 433.7734375 117.000625 434.546875 118.03125 435.34375 C156.21722216 464.49648143 200.51841984 484.24737983 246 499 C246 499.33 246 499.66 246 500 C164.82 500 83.64 500 0 500 C0 335 0 170 0 0 Z " fill="#FEFEFF" transform="translate(0,0)"/>
<path d="M0 0 C81.84 0 163.68 0 248 0 C248 165 248 330 248 500 C166.82 500 85.64 500 2 500 C4.99139427 498.00573715 7.42822261 497.08227787 10.828125 495.96875 C12.59881348 495.37924561 12.59881348 495.37924561 14.40527344 494.77783203 C15.34493958 494.46631195 15.34493958 494.46631195 16.30358887 494.14849854 C30.22763781 489.50933202 43.67678835 484.17477875 57 478 C58.00482422 477.53867676 59.00964844 477.07735352 60.04492188 476.60205078 C81.37310044 466.76724265 102.01476878 455.8877064 121 442 C121.66580078 441.5167627 122.33160156 441.03352539 123.01757812 440.53564453 C132.34825176 433.74105683 141.33358206 426.62300675 150 419 C151.47533203 417.71029297 151.47533203 417.71029297 152.98046875 416.39453125 C169.99728767 401.17605515 184.75744153 383.93312513 196 364 C196.59143799 362.95851807 196.59143799 362.95851807 197.19482422 361.89599609 C203.33635933 350.97062778 208.31572645 339.95149624 212.30224609 328.06884766 C212.90179182 326.29118829 213.53551146 324.52511959 214.17578125 322.76171875 C222.70423594 297.9007794 221.61233706 271.67309358 221.60750484 245.77686882 C221.61066915 240.17952316 221.63635918 234.58227771 221.65948486 228.98498535 C221.69978225 218.42474438 221.72032325 207.86456473 221.73345876 197.30425882 C221.74941861 185.26518272 221.78787121 173.22620969 221.82805204 161.18719387 C221.91009092 136.458164 221.96440703 111.72913733 222 87 C221.24549057 86.8598497 220.49098114 86.7196994 219.71360779 86.57530212 C216.19601668 85.82955042 212.93722669 84.5569172 209.59765625 83.25390625 C208.8649501 82.97164185 208.13224396 82.68937744 207.37733459 82.39855957 C204.93746758 81.45726172 202.49997211 80.50998049 200.0625 79.5625 C198.32480132 78.89029982 196.5870062 78.2183489 194.84912109 77.54663086 C176.70938363 70.52737061 158.60108133 63.42697647 140.49243164 56.32800293 C130.89368605 52.56540859 121.29167082 48.81122322 111.6875 45.0625 C110.8638092 44.74096954 110.04011841 44.41943909 109.19146729 44.08816528 C96.01099041 38.94427893 82.82112136 33.82478546 69.62832642 28.71258545 C66.52692481 27.51043645 63.42587766 26.30737787 60.32495117 25.10400391 C58.27914511 24.31019301 56.23332809 23.51641037 54.1875 22.72265625 C53.17967972 22.3316272 52.17185944 21.94059814 51.13349915 21.53771973 C45.02874068 19.17045807 38.92040437 16.81270721 32.8092041 14.46212769 C28.94997087 12.97657678 25.09282858 11.48565056 21.23608398 9.99365234 C19.42276731 9.29369625 17.60848496 8.59623637 15.79321289 7.90136719 C13.30757701 6.94964827 10.82534414 5.9895422 8.34375 5.02734375 C7.60777588 4.74805527 6.87180176 4.46876678 6.11352539 4.18101501 C1.11398213 2.22796426 1.11398213 2.22796426 0 0 Z " fill="#FEFEFF" transform="translate(252,0)"/>
</svg>
